<svg xmlns="http://www.w3.org/2000/svg">

  <!-- recycle -->
  <symbol id="recycle" viewBox="0 0 24 24">
    <g>
      <path d="M7.356,1.482c0,0,1.762-0.865,3.229,1.677c1.026,1.777,2.991,5.181,2.991,5.181l5.196-3c0,0-1-1.732-1.75-3.031
        s-1.906-1.301-1.906-1.301l-5.234,0C7.934,0.928,7.356,1.482,7.356,1.482z"/>
      <path d="M9.72,3.659c-0.88-1.525-1.761-1.617-2.131-1.629C7.218,2.017,6.7,2.207,6.309,2.885S4.123,6.67,4.123,6.67l5.196,3
        l1.936-3.353L9.72,3.659z"/>
      <path d="M12.318,8.919l5.357,0.519l2.232-4.894c0.099-0.177-0.099-0.372-0.275-0.271l-7.411,4.272
        C12.046,8.647,12.115,8.916,12.318,8.919z"/>
    </g>
    <g>
      <path d="M23.55,14.042c0,0-0.132,1.958-3.067,1.958c-2.052,0-5.983,0-5.983,0v6c0,0,2,0,3.5,0s2.08-1,2.08-1l2.617-4.532
        C23.74,14.819,23.55,14.042,23.55,14.042z"/>
      <path d="M20.483,15c1.761,0,2.281-0.716,2.477-1.031c0.196-0.315,0.29-0.858-0.101-1.536C22.468,11.756,20.5,8.349,20.5,8.349
        l-5.196,3L17.412,15H20.483z"/>
      <path d="M14.628,14.62L11.5,19l3.122,4.38c0.104,0.174,0.371,0.1,0.372-0.103L15,14.723C15,14.52,14.732,14.446,14.628,14.62z"/>
    </g>
    <g>
      <path d="M4.921,21.785c0,0-1.63-1.094-0.163-3.635c1.026-1.777,2.819-5.48,2.819-5.48l-5.196-3c0,0-1,1.732-1.75,3.031
        s-0.001,2.6-0.001,2.6l2.617,4.532C4.152,21.562,4.921,21.785,4.921,21.785z"/>
      <path d="M5.625,18.65c-0.88,1.525-0.52,2.333-0.345,2.66c0.175,0.327,0.598,0.681,1.38,0.681s4.371,0,4.371,0l0-6l-3.871,0
        L5.625,18.65z"/>
      <path d="M8.708,13.471L6.479,8.572L1.125,9.086C0.922,9.089,0.852,9.358,1.028,9.459l7.406,4.282
        C8.609,13.843,8.807,13.648,8.708,13.471z"/>
    </g>
  </symbol>

  <!-- compost -->
  <symbol id="compost" viewBox="0 0 24 24">
    <path d="M19,8H5v0c0-1.105,0.895-2,2-2h10C18.105,6,19,6.895,19,8L19,8z"/>
    <path d="M14,5.008h-4c-1.105,0-2,0.895-2,2h8C16,5.903,15.105,5.008,14,5.008z"/>
    <path d="M5.74,9l0.748,12.25c0,0.966,0.28,1.75,1.246,1.75h8.532c0.966,0,1.246-0.784,1.246-1.75L18.26,9H5.74z"/>
  </symbol>

  <!-- garbage -->
  <symbol id="garbage" viewBox="0 0 24 24">
    <path d="M18,12H6c-0.552,0-1-0.448-1-1V4h14v7C19,11.552,18.552,12,18,12z"/>
    <path d="M20,3H4v0c0-1.105,0.716-2,1.6-2h12.8C19.284,1,20,1.895,20,3L20,3z"/>
    <path d="M4.75,23L4.75,23C4.336,23,4,22.664,4,22.25v-4.5C4,17.336,4.336,17,4.75,17h0c0.414,0,0.75,0.336,0.75,0.75v4.5
      C5.5,22.664,5.164,23,4.75,23z"/>
    <path d="M19.25,23L19.25,23c-0.414,0-0.75-0.336-0.75-0.75v-4.5c0-0.414,0.336-0.75,0.75-0.75l0,0c0.414,0,0.75,0.336,0.75,0.75
      v4.5C20,22.664,19.664,23,19.25,23z"/>
    <path d="M15.994,2C15.964,0.922,15.085,0.057,14,0.057h-4C8.915,0.057,8.036,0.922,8.006,2H15.994z"/>
    <path d="M16,6H8C6.895,6,6,6.895,6,8v13c0,1.105,0.895,2,2,2h0.55l0.953-9.053C9.529,13.693,9.744,13.5,10,13.5h4
      c0.256,0,0.471,0.193,0.497,0.447L15.45,23H16c1.105,0,2-0.895,2-2V8C18,6.895,17.105,6,16,6z"/>
    <polygon points="14.339,22 13.55,14.5 10.45,14.5 9.661,22   "/>
  </symbol>

  <!-- yard_waste -->
  <symbol id="yard_waste" viewBox="0 0 24 24">
    <path d="M18,3l-2,1l-2-1l-2,1l-2-1L8,4L6,3L5,3.5L6,17l-1,4c0,1.105,0.895,2,2,2h10c1.105,0,2-0.895,2-2l-1-4l1-13.5L18,3z
       M14.798,16.75c-1.626,1.626-3.981,1.951-5.525,0.855C8.658,18.222,7.951,19.5,7.951,19.5L7,19.246
      c1.938-2.761,3.378-4.328,6.203-6.349C13.203,12.897,9.5,14,8,16c-0.5-1.5-0.178-3.17,1.35-4.698c0.99-0.99,2.68-1.247,4.504-1.404
      C15.789,9.732,17,9.1,17,9.1S16.582,14.966,14.798,16.75z"/>
  </symbol>

  <!-- christmas_tree -->
  <symbol id="christmas_tree" viewBox="0 0 24 24">
    <path d="M20.377,21.378C18.194,19.461,17.085,17.594,15.5,15h2.711c0.12,0,0.222-0.062,0.267-0.161
      c0.045-0.1,0.02-0.208-0.065-0.283C16.683,13.037,15.69,10.128,14.5,8h1.801c0.082,0,0.153-0.042,0.184-0.111
      c0.031-0.068,0.014-0.143-0.045-0.195c-1.831-1.608-3.412-4.83-4.249-7.564C12.167,0.053,12.09,0,12,0
      c-0.09,0-0.167,0.053-0.191,0.131C10.972,2.864,9.392,6.086,7.56,7.695C7.501,7.746,7.484,7.821,7.515,7.889
      C7.547,7.958,7.617,8,7.699,8H9.5c-1.191,2.128-2.183,5.037-3.912,6.556c-0.086,0.075-0.111,0.183-0.066,0.283
      C5.567,14.938,5.669,15,5.789,15H8.5c-1.585,2.594-2.694,4.461-4.877,6.378c-0.12,0.105-0.155,0.257-0.092,0.396
      C3.594,21.914,3.737,22,3.905,22H11v1h2v-1h7.095c0.168,0,0.31-0.086,0.374-0.226C20.532,21.635,20.497,21.483,20.377,21.378z"/>
  </symbol>

</svg>